<svg width="43" height="44" viewBox="0 0 43 44" fill="none" xmlns="http://www.w3.org/2000/svg">
<path d="M37.4313 24.4152C36.9585 24.4152 36.4641 24.2648 35.9913 24.1573C35.0345 23.9434 34.0938 23.6633 33.1758 23.3191C32.1788 22.9564 31.0828 22.9752 30.0988 23.372C29.1148 23.7688 28.3123 24.5154 27.8457 25.4683L27.3729 26.457C25.2856 25.2732 23.3573 23.8288 21.6344 22.1585C19.9642 20.4356 18.5198 18.5074 17.336 16.4201L18.3246 15.9687C19.2775 15.5022 20.0242 14.6997 20.421 13.7157C20.8178 12.7317 20.8366 11.6357 20.4739 10.6386C20.1325 9.7124 19.8525 8.76469 19.6357 7.80166C19.5282 7.32883 19.4422 6.83451 19.3778 6.36168C19.1168 4.84781 18.3238 3.47686 17.1417 2.49573C15.9597 1.5146 14.4661 0.987764 12.9301 1.0101H6.46088C5.55229 1.00891 4.6537 1.19976 3.82403 1.57015C2.99436 1.94054 2.25233 2.4821 1.6466 3.15933C1.02831 3.85493 0.567938 4.67615 0.297109 5.56654C0.0262805 6.45694 -0.0485818 7.39541 0.0776657 8.31748C1.24596 17.2629 5.33299 25.5729 11.705 31.959C18.0911 38.331 26.4011 42.4181 35.3465 43.5863C35.6255 43.6077 35.9057 43.6077 36.1847 43.5863C37.7696 43.5887 39.2998 43.0072 40.4832 41.9529C41.1604 41.3472 41.702 40.6052 42.0724 39.7755C42.4428 38.9458 42.6336 38.0473 42.6324 37.1387V30.691C42.6208 29.2059 42.097 27.7704 41.1493 26.627C40.2017 25.4835 38.8884 24.7023 37.4313 24.4152ZM38.4844 37.3106C38.4837 37.6105 38.4202 37.907 38.2981 38.1809C38.1759 38.4548 37.9978 38.7001 37.7752 38.901C37.5396 39.1156 37.2593 39.2752 36.9545 39.3681C36.6497 39.461 36.328 39.485 36.0128 39.4383C27.9925 38.3909 20.5389 34.7358 14.7999 29.0361C9.05602 23.2922 5.36913 15.8126 4.31165 7.75868C4.26496 7.44346 4.28895 7.12181 4.38188 6.817C4.4748 6.51219 4.63435 6.23186 4.84896 5.99631C5.05232 5.77097 5.30111 5.59126 5.57894 5.46901C5.85677 5.34676 6.15735 5.28475 6.46088 5.28707H12.9086C13.4054 5.27492 13.8911 5.43533 14.2829 5.74098C14.6748 6.04663 14.9486 6.47864 15.0578 6.96347C15.0578 7.54376 15.2512 8.14554 15.3802 8.72583C15.6286 9.85174 15.959 10.958 16.3688 12.0356L13.3599 13.4541C12.8427 13.6916 12.4408 14.1244 12.2423 14.6577C12.0273 15.181 12.0273 15.7679 12.2423 16.2911C15.3355 22.9167 20.6614 28.2426 27.2869 31.3357C27.8102 31.5507 28.3971 31.5507 28.9203 31.3357C29.4537 31.1372 29.8865 30.7353 30.1239 30.2181L31.4779 27.2092C32.5867 27.6135 33.7211 27.9438 34.8737 28.1979C35.4325 28.3268 36.0343 28.4343 36.6146 28.5202C37.0994 28.6294 37.5314 28.9033 37.8371 29.2951C38.1427 29.687 38.3031 30.1727 38.291 30.6695L38.4844 37.3106ZM25.804 0.773682C25.3096 0.773682 24.7938 0.773682 24.2995 0.773682C23.7295 0.822133 23.2021 1.09504 22.8333 1.53235C22.4645 1.96967 22.2845 2.53559 22.3329 3.1056C22.3814 3.67561 22.6543 4.20303 23.0916 4.57182C23.5289 4.94062 24.0948 5.12059 24.6649 5.07214H25.804C29.224 5.07214 32.504 6.43076 34.9224 8.84911C37.3407 11.2675 38.6993 14.5475 38.6993 17.9675C38.6993 18.3544 38.6993 18.7198 38.6993 19.1066C38.6517 19.6736 38.8308 20.2364 39.1974 20.6715C39.5641 21.1066 40.0883 21.3786 40.6551 21.4278H40.8271C41.3651 21.43 41.8844 21.2303 42.2823 20.8682C42.6802 20.506 42.9279 20.0078 42.9763 19.472C42.9763 18.9777 42.9763 18.4618 42.9763 17.9675C42.9763 13.4112 41.1678 9.04109 37.9479 5.81723C34.7281 2.59338 30.3603 0.779377 25.804 0.773682ZM30.1024 17.9675C30.1024 18.5375 30.3288 19.0842 30.7319 19.4873C31.135 19.8903 31.6816 20.1168 32.2516 20.1168C32.8217 20.1168 33.3683 19.8903 33.7714 19.4873C34.1744 19.0842 34.4009 18.5375 34.4009 17.9675C34.4009 15.6875 33.4951 13.5008 31.8829 11.8886C30.2707 10.2763 28.084 9.3706 25.804 9.3706C25.2339 9.3706 24.6873 9.59704 24.2842 10.0001C23.8812 10.4032 23.6547 10.9498 23.6547 11.5198C23.6547 12.0898 23.8812 12.6365 24.2842 13.0396C24.6873 13.4426 25.2339 13.6691 25.804 13.6691C26.944 13.6691 28.0373 14.1219 28.8434 14.9281C29.6495 15.7342 30.1024 16.8275 30.1024 17.9675Z" fill="white"/>
</svg>
