<svg width="44" height="44" viewBox="0 0 44 44" fill="none" xmlns="http://www.w3.org/2000/svg">
<path d="M6.26672 24.0039C6.4603 24.3137 6.72963 24.569 7.04927 24.7457C7.36891 24.9224 7.72832 25.0148 8.09357 25.0141C8.49111 25.0255 8.88401 24.9263 9.22856 24.7277C9.57311 24.5291 9.85578 24.2387 10.0451 23.889C10.2345 23.5392 10.3231 23.1438 10.3011 22.7467C10.279 22.3496 10.1473 21.9664 9.92041 21.6398C7.1083 17.1734 5.29723 12.1508 4.61181 6.91756C4.56555 6.60732 4.58775 6.29072 4.67686 5.98997C4.76597 5.68923 4.91983 5.41164 5.12763 5.17668C5.32903 4.94743 5.57695 4.76369 5.85488 4.63769C6.13282 4.51169 6.43439 4.44633 6.73955 4.44594H13.1872C13.69 4.4358 14.1805 4.60231 14.5732 4.91647C14.9659 5.23063 15.236 5.67256 15.3365 6.16533C15.3365 6.65965 15.5084 7.11099 15.6159 7.60531V7.88471C15.866 9.01258 16.2037 10.1192 16.626 11.1945L13.6386 12.613C13.3804 12.733 13.1487 12.9031 12.9569 13.1134C12.765 13.3237 12.6169 13.57 12.521 13.8381C12.4116 14.1002 12.3553 14.3815 12.3553 14.6655C12.3553 14.9496 12.4116 15.2308 12.521 15.493C12.7359 15.9443 12.9508 16.3957 13.2087 16.8685C13.3491 17.1148 13.5369 17.3308 13.7612 17.5042C13.9854 17.6777 14.2418 17.805 14.5155 17.8789C14.7891 17.9528 15.0747 17.9718 15.3558 17.9349C15.6369 17.898 15.9079 17.8058 16.1532 17.6637C16.5044 17.4624 16.7916 17.1659 16.9817 16.8085C17.1718 16.4511 17.2571 16.0472 17.2278 15.6434L18.4529 15.1921C19.4252 14.7442 20.1954 13.9496 20.6128 12.9638C21.0302 11.978 21.0647 10.8719 20.7095 9.862C20.3625 8.95233 20.0823 8.01851 19.8713 7.068V6.85308C19.8713 6.42323 19.6994 5.99339 19.6349 5.60653C19.3987 4.08402 18.6251 2.69644 17.4542 1.69505C16.2832 0.693665 14.7924 0.144669 13.2517 0.147482H6.80403C5.88099 0.13405 4.96583 0.318982 4.12043 0.689771C3.27503 1.06056 2.51911 1.60856 1.90378 2.29671C1.29223 2.99164 0.837485 3.81011 0.570467 4.69646C0.303448 5.58282 0.230417 6.51627 0.356339 7.43337C1.10245 13.3199 3.11912 18.974 6.26672 24.0039ZM37.667 23.5526L36.3774 23.3162H36.2055C35.2332 23.1082 34.2777 22.828 33.347 22.478C32.3527 22.1213 31.2618 22.1433 30.2827 22.5397C29.3035 22.9361 28.5046 23.6793 28.0384 24.6272L27.5871 25.6159C26.1211 24.7678 24.7393 23.7819 23.4606 22.6714L42.3738 3.77968C42.5742 3.57929 42.7331 3.34139 42.8416 3.07957C42.95 2.81774 43.0059 2.53712 43.0059 2.25373C43.0059 1.97033 42.95 1.68971 42.8416 1.42789C42.7331 1.16606 42.5742 0.928165 42.3738 0.727774C42.1734 0.527383 41.9355 0.368424 41.6737 0.259973C41.4119 0.151522 41.1312 0.0957031 40.8478 0.0957031C40.5644 0.0957031 40.2838 0.151522 40.022 0.259973C39.7602 0.368424 39.5223 0.527383 39.3219 0.727774L0.635739 39.4139C0.434295 39.6137 0.274404 39.8514 0.165291 40.1133C0.0561771 40.3752 0 40.6561 0 40.9399C0 41.2236 0.0561771 41.5045 0.165291 41.7664C0.274404 42.0283 0.434295 42.266 0.635739 42.4658C0.835537 42.6673 1.07325 42.8272 1.33515 42.9363C1.59705 43.0454 1.87797 43.1016 2.16169 43.1016C2.44542 43.1016 2.72633 43.0454 2.98824 42.9363C3.25014 42.8272 3.48785 42.6673 3.68765 42.4658L13.5526 32.5794C19.7265 38.127 27.4378 41.6716 35.6682 42.7452C35.9544 42.7666 36.2417 42.7666 36.5279 42.7452C38.1099 42.7535 39.6398 42.1798 40.8263 41.1333C41.5063 40.5252 42.0494 39.7797 42.4199 38.9461C42.7904 38.1125 42.9798 37.2097 42.9756 36.2975V29.8498C42.9641 28.3458 42.4272 26.8931 41.4578 25.7431C40.4884 24.5932 39.1474 23.8183 37.667 23.5526ZM38.6986 36.448C38.6982 36.7531 38.6329 37.0547 38.5069 37.3327C38.3809 37.6106 38.1971 37.8585 37.9679 38.0599C37.7329 38.2677 37.4553 38.4216 37.1546 38.5107C36.8538 38.5998 36.5372 38.622 36.227 38.5757C28.9258 37.6203 22.0811 34.49 16.583 29.5919L20.3872 25.7878C22.5784 27.6979 25.023 29.2963 27.6516 30.5376C27.9137 30.647 28.195 30.7033 28.479 30.7033C28.7631 30.7033 29.0443 30.647 29.3065 30.5376C29.5745 30.4417 29.8208 30.2936 30.0311 30.1017C30.2414 29.9099 30.4115 29.6781 30.5315 29.42L31.8641 26.3896C32.9855 26.8056 34.1345 27.1432 35.3028 27.3997H35.5392L37.0222 27.6791C37.507 27.7883 37.939 28.0621 38.2447 28.454C38.5503 28.8459 38.7108 29.3315 38.6986 29.8284V36.448Z" fill="white"/>
</svg>
