<svg width="37" height="46" viewBox="0 0 37 46" fill="none" xmlns="http://www.w3.org/2000/svg">
<path d="M18.2162 25.0473C17.523 25.0392 16.8439 25.2437 16.2704 25.6332C15.6968 26.0227 15.2564 26.5786 15.0084 27.226C14.7603 27.8734 14.7166 28.5812 14.883 29.2542C15.0494 29.9273 15.418 30.5331 15.9392 30.9903V34.1554C15.9392 34.7593 16.1791 35.3385 16.6061 35.7655C17.0331 36.1925 17.6123 36.4324 18.2162 36.4324C18.8201 36.4324 19.3993 36.1925 19.8263 35.7655C20.2533 35.3385 20.4932 34.7593 20.4932 34.1554V30.9903C21.0144 30.5331 21.383 29.9273 21.5494 29.2542C21.7159 28.5812 21.6721 27.8734 21.4241 27.226C21.176 26.5786 20.7356 26.0227 20.1621 25.6332C19.5885 25.2437 18.9095 25.0392 18.2162 25.0473ZM29.6014 15.9392V11.3851C29.6014 8.36561 28.4019 5.46976 26.2667 3.33463C24.1316 1.1995 21.2357 0 18.2162 0C15.1967 0 12.3008 1.1995 10.1657 3.33463C8.03058 5.46976 6.83108 8.36561 6.83108 11.3851V15.9392C5.01937 15.9392 3.28185 16.6589 2.00078 17.94C0.719701 19.221 0 20.9586 0 22.7703V38.7095C0 40.5212 0.719701 42.2587 2.00078 43.5398C3.28185 44.8208 5.01937 45.5405 6.83108 45.5405H29.6014C31.4131 45.5405 33.1506 44.8208 34.4317 43.5398C35.7127 42.2587 36.4324 40.5212 36.4324 38.7095V22.7703C36.4324 20.9586 35.7127 19.221 34.4317 17.94C33.1506 16.6589 31.4131 15.9392 29.6014 15.9392ZM11.3851 11.3851C11.3851 9.57342 12.1048 7.83591 13.3859 6.55483C14.667 5.27376 16.4045 4.55405 18.2162 4.55405C20.0279 4.55405 21.7654 5.27376 23.0465 6.55483C24.3276 7.83591 25.0473 9.57342 25.0473 11.3851V15.9392H11.3851V11.3851ZM31.8784 38.7095C31.8784 39.3134 31.6385 39.8925 31.2115 40.3196C30.7844 40.7466 30.2053 40.9865 29.6014 40.9865H6.83108C6.22718 40.9865 5.64801 40.7466 5.22098 40.3196C4.79396 39.8925 4.55405 39.3134 4.55405 38.7095V22.7703C4.55405 22.1664 4.79396 21.5872 5.22098 21.1602C5.64801 20.7331 6.22718 20.4932 6.83108 20.4932H29.6014C30.2053 20.4932 30.7844 20.7331 31.2115 21.1602C31.6385 21.5872 31.8784 22.1664 31.8784 22.7703V38.7095Z" fill="white"/>
</svg>
