<svg width="368" height="79" viewBox="0 0 368 79" fill="none" xmlns="http://www.w3.org/2000/svg">
<path d="M13.7042 18.6237L0 29.406V78.9318H14.3271V56.4597L27.4083 45.3164V28.5777C25.5466 27.5073 24.2938 25.5067 24.2938 23.2152C24.2938 19.7961 27.0826 17.0245 30.5229 17.0245C33.9633 17.0245 36.7521 19.7961 36.7521 23.2152C36.7521 25.5067 35.4993 27.5073 33.6375 28.5777V48.1636L20.5562 59.3069V78.9318H27.4083V70.6747C25.5466 69.6043 24.2938 67.6037 24.2938 65.3122C24.2938 61.8931 27.0826 59.1215 30.5229 59.1215C33.9633 59.1215 36.7521 61.8931 36.7521 65.3122C36.7521 67.6037 35.4993 69.6043 33.6375 70.6747V78.9318H42.3583V3.92075L37.375 0L19.9333 13.7228V32.0914C21.7951 33.1618 23.0479 35.1625 23.0479 37.4539C23.0479 40.873 20.2591 43.6447 16.8188 43.6447C13.3784 43.6447 10.5896 40.873 10.5896 37.4539C10.5896 35.1625 11.8424 33.1618 13.7042 32.0914V18.6237Z" fill="white"/>
<path d="M48.5875 8.82178V78.9318H55.4395V42.8164C53.5778 41.746 52.325 39.7454 52.325 37.4539C52.325 34.0348 55.1138 31.2632 58.5541 31.2632C61.9945 31.2632 64.7833 34.0348 64.7833 37.4539C64.7833 39.7454 63.5305 41.746 61.6687 42.8164V78.9318H74.75V29.406L48.5875 8.82178Z" fill="#6674BB"/>
<path d="M97.2273 38.8263H106.225V77.7421H97.2273V38.8263Z" fill="white"/>
<path d="M154.495 38.8263C157.939 38.8263 160.919 39.4008 163.437 40.5497C165.992 41.6987 167.954 43.3294 169.324 45.442C170.694 47.5546 171.379 50.0563 171.379 52.9472C171.379 55.801 170.694 58.3027 169.324 60.4523C167.954 62.5649 165.992 64.1957 163.437 65.3446C160.919 66.4565 157.939 67.0124 154.495 67.0124H146.664V77.7421H137.667V38.8263H154.495ZM153.995 59.674C156.698 59.674 158.753 59.0996 160.16 57.9506C161.567 56.7646 162.271 55.0968 162.271 52.9472C162.271 50.7605 161.567 49.0927 160.16 47.9437C158.753 46.7577 156.698 46.1647 153.995 46.1647H146.664V59.674H153.995Z" fill="white"/>
<path d="M213.335 78.4092C210.262 78.4092 207.281 78.0015 204.393 77.1861C201.542 76.3337 199.246 75.2403 197.506 73.9061L200.561 67.1236C202.227 68.3467 204.208 69.3288 206.504 70.0701C208.799 70.8113 211.095 71.182 213.391 71.182C215.945 71.182 217.834 70.8113 219.056 70.0701C220.277 69.2918 220.888 68.2726 220.888 67.0124C220.888 66.0859 220.518 65.3261 219.778 64.7331C219.074 64.103 218.148 63.6027 217.001 63.232C215.89 62.8614 214.372 62.4537 212.446 62.009C209.484 61.3048 207.059 60.6006 205.171 59.8964C203.282 59.1922 201.653 58.0618 200.283 56.5052C198.95 54.9485 198.284 52.873 198.284 50.2787C198.284 48.0178 198.895 45.9794 200.117 44.1633C201.338 42.3102 203.171 40.8462 205.615 39.7714C208.096 38.6966 211.113 38.1592 214.668 38.1592C217.149 38.1592 219.574 38.4557 221.944 39.0487C224.313 39.6417 226.387 40.4941 228.164 41.606L225.387 48.4441C221.795 46.4056 218.204 45.3864 214.612 45.3864C212.095 45.3864 210.225 45.7941 209.003 46.6095C207.818 47.4248 207.226 48.4996 207.226 49.8339C207.226 51.1682 207.911 52.1688 209.281 52.836C210.688 53.466 212.817 54.0961 215.668 54.7262C218.63 55.4304 221.055 56.1345 222.943 56.8387C224.832 57.5429 226.442 58.6548 227.775 60.1744C229.145 61.6939 229.83 63.7509 229.83 66.3453C229.83 68.5691 229.201 70.6075 227.942 72.4606C226.72 74.2767 224.869 75.7221 222.388 76.797C219.907 77.8718 216.89 78.4092 213.335 78.4092Z" fill="white"/>
<path d="M275.467 78.4092C269.913 78.4092 265.581 76.8711 262.47 73.7949C259.397 70.7187 257.861 66.3268 257.861 60.6191V38.8263H266.858V60.2856C266.858 67.2533 269.746 70.7372 275.522 70.7372C278.336 70.7372 280.484 69.9033 281.965 68.2355C283.446 66.5306 284.186 63.8806 284.186 60.2856V38.8263H293.073V60.6191C293.073 66.3268 291.518 70.7187 288.407 73.7949C285.334 76.8711 281.021 78.4092 275.467 78.4092Z" fill="white"/>
<path d="M359.558 77.7421L359.503 54.3926L348.061 73.6281H344.007L332.621 54.8929V77.7421H324.179V38.8263H331.622L346.173 63.0097L360.502 38.8263H367.889L368 77.7421H359.558Z" fill="white"/>
</svg>
