<svg width="35" height="48" viewBox="0 0 35 48" fill="none" xmlns="http://www.w3.org/2000/svg">
<path d="M17.5049 30.0892C19.7849 30.0892 21.9716 29.1835 23.5838 27.5712C25.1961 25.959 26.1018 23.7723 26.1018 21.4923V8.59692C26.1018 6.31688 25.1961 4.13022 23.5838 2.51798C21.9716 0.905745 19.7849 0 17.5049 0C15.2248 0 13.0382 0.905745 11.4259 2.51798C9.8137 4.13022 8.90796 6.31688 8.90796 8.59692V21.4923C8.90796 23.7723 9.8137 25.959 11.4259 27.5712C13.0382 29.1835 15.2248 30.0892 17.5049 30.0892ZM13.2064 8.59692C13.2064 7.4569 13.6593 6.36357 14.4654 5.55745C15.2715 4.75133 16.3649 4.29846 17.5049 4.29846C18.6449 4.29846 19.7382 4.75133 20.5443 5.55745C21.3505 6.36357 21.8033 7.4569 21.8033 8.59692V21.4923C21.8033 22.6323 21.3505 23.7257 20.5443 24.5318C19.7382 25.3379 18.6449 25.7908 17.5049 25.7908C16.3649 25.7908 15.2715 25.3379 14.4654 24.5318C13.6593 23.7257 13.2064 22.6323 13.2064 21.4923V8.59692ZM34.6987 21.4923C34.6987 20.9223 34.4723 20.3756 34.0692 19.9726C33.6662 19.5695 33.1195 19.3431 32.5495 19.3431C31.9795 19.3431 31.4328 19.5695 31.0298 19.9726C30.6267 20.3756 30.4003 20.9223 30.4003 21.4923C30.4003 24.9124 29.0416 28.1924 26.6233 30.6107C24.2049 33.0291 20.9249 34.3877 17.5049 34.3877C14.0848 34.3877 10.8048 33.0291 8.38647 30.6107C5.96811 28.1924 4.6095 24.9124 4.6095 21.4923C4.6095 20.9223 4.38306 20.3756 3.98 19.9726C3.57694 19.5695 3.03028 19.3431 2.46027 19.3431C1.89025 19.3431 1.34359 19.5695 0.940531 19.9726C0.537472 20.3756 0.311035 20.9223 0.311035 21.4923C0.31483 25.6775 1.84499 29.7176 4.61465 32.8552C7.38431 35.9928 11.2033 38.0126 15.3556 38.5357V42.9846H11.0572C10.4872 42.9846 9.94051 43.211 9.53745 43.6141C9.13439 44.0172 8.90796 44.5638 8.90796 45.1338C8.90796 45.7038 9.13439 46.2505 9.53745 46.6536C9.94051 47.0566 10.4872 47.2831 11.0572 47.2831H23.9526C24.5226 47.2831 25.0692 47.0566 25.4723 46.6536C25.8754 46.2505 26.1018 45.7038 26.1018 45.1338C26.1018 44.5638 25.8754 44.0172 25.4723 43.6141C25.0692 43.211 24.5226 42.9846 23.9526 42.9846H19.6541V38.5357C23.8065 38.0126 27.6254 35.9928 30.3951 32.8552C33.1648 29.7176 34.6949 25.6775 34.6987 21.4923Z" fill="white"/>
</svg>
