<svg width="43" height="48" viewBox="0 0 43 48" fill="none" xmlns="http://www.w3.org/2000/svg">
<path d="M18.2814 5.89545C18.6628 5.43593 19.1358 5.06093 19.6702 4.79435C20.2046 4.52778 20.7886 4.37548 21.3852 4.34717C21.9817 4.31886 22.5776 4.41516 23.1348 4.62993C23.692 4.8447 24.1984 5.17323 24.6216 5.59456C25.3974 6.41086 25.8218 7.49899 25.8037 8.62498V15.9539C25.8037 16.5239 26.0301 17.0705 26.4332 17.4736C26.8362 17.8766 27.3829 18.1031 27.9529 18.1031C28.5229 18.1031 29.0696 17.8766 29.4727 17.4736C29.8757 17.0705 30.1021 16.5239 30.1021 15.9539V8.62498C30.053 6.89988 29.4858 5.22951 28.4743 3.8312C27.4628 2.43288 26.0539 1.37136 24.4309 0.784749C22.8078 0.198137 21.0458 0.11359 19.3741 0.54211C17.7023 0.97063 16.1982 1.89238 15.0575 3.18742C14.8074 3.38532 14.6044 3.63642 14.4633 3.9225C14.3222 4.20859 14.2466 4.52249 14.2419 4.84143C14.2372 5.16038 14.3036 5.47637 14.4362 5.76648C14.5688 6.05659 14.7643 6.31354 15.0086 6.51871C15.2528 6.72387 15.5396 6.8721 15.8483 6.95263C16.1569 7.03317 16.4796 7.04399 16.793 6.98432C17.1063 6.92465 17.4025 6.79598 17.6599 6.60764C17.9173 6.41931 18.1296 6.17603 18.2814 5.89545ZM35.9481 26.3991H36.3779C36.8837 26.4083 37.3766 26.2388 37.7698 25.9203C38.1629 25.6019 38.4311 25.155 38.5271 24.6582C38.6812 23.6198 38.7388 22.5694 38.6991 21.5204C38.6991 20.9503 38.4726 20.4037 38.0696 20.0006C37.6665 19.5976 37.1199 19.3711 36.5498 19.3711C35.9798 19.3711 35.4332 19.5976 35.0301 20.0006C34.627 20.4037 34.4006 20.9503 34.4006 21.5204C34.4008 22.3143 34.3216 23.1063 34.1642 23.8845C34.1119 24.1672 34.1169 24.4575 34.1788 24.7382C34.2407 25.0189 34.3583 25.2844 34.5247 25.5188C34.691 25.7533 34.9027 25.952 35.1472 26.1032C35.3916 26.2544 35.664 26.355 35.9481 26.3991ZM42.3957 39.4234L3.7096 0.737301C3.5098 0.535857 3.2721 0.375967 3.01019 0.266853C2.74829 0.15774 2.46737 0.101562 2.18365 0.101562C1.89992 0.101562 1.61901 0.15774 1.35711 0.266853C1.0952 0.375967 0.857494 0.535857 0.657695 0.737301C0.257399 1.13999 0.0327148 1.68471 0.0327148 2.25251C0.0327148 2.8203 0.257399 3.36503 0.657695 3.76772L12.9083 16.1043V21.5204C12.9099 23.0287 13.3082 24.5101 14.0634 25.8157C14.8185 27.1214 15.9039 28.2054 17.2106 28.9589C18.5172 29.7124 19.9991 30.1089 21.5074 30.1085C23.0158 30.1081 24.4974 29.7109 25.8037 28.9567L28.9416 32.0946C27.0082 33.4593 24.7365 34.2656 22.3753 34.4253C20.0142 34.585 17.6546 34.0919 15.5551 33C13.4555 31.908 11.6969 30.2593 10.4719 28.2345C9.2469 26.2097 8.60269 23.8869 8.60985 21.5204C8.60985 20.9503 8.38341 20.4037 7.98035 20.0006C7.57729 19.5976 7.03063 19.3711 6.46062 19.3711C5.89061 19.3711 5.34394 19.5976 4.94088 20.0006C4.53782 20.4037 4.31139 20.9503 4.31139 21.5204C4.31518 25.7055 5.84534 29.7456 8.615 32.8833C11.3847 36.0209 15.2036 38.0406 19.356 38.5638V43.0127H15.0575C14.4875 43.0127 13.9409 43.2391 13.5378 43.6422C13.1347 44.0452 12.9083 44.5919 12.9083 45.1619C12.9083 45.7319 13.1347 46.2786 13.5378 46.6816C13.9409 47.0847 14.4875 47.3111 15.0575 47.3111H27.9529C28.5229 47.3111 29.0696 47.0847 29.4727 46.6816C29.8757 46.2786 30.1021 45.7319 30.1021 45.1619C30.1021 44.5919 29.8757 44.0452 29.4727 43.6422C29.0696 43.2391 28.5229 43.0127 27.9529 43.0127H23.6545V38.5638C26.6695 38.1885 29.5278 37.0081 31.929 35.1465L39.2364 42.4539C39.6382 42.8586 40.1844 43.0871 40.7547 43.0891C41.3251 43.0911 41.8728 42.8665 42.2775 42.4646C42.6823 42.0628 42.9107 41.5166 42.9128 40.9463C42.9148 40.3759 42.6901 39.8282 42.2883 39.4234H42.3957ZM21.5052 25.8188C20.3652 25.8188 19.2719 25.3659 18.4658 24.5598C17.6596 23.7537 17.2068 22.6604 17.2068 21.5204V20.4028L22.4724 25.6899C22.157 25.7749 21.8319 25.8183 21.5052 25.8188Z" fill="white"/>
</svg>
