<svg width="43" height="44" viewBox="0 0 43 44" fill="none" xmlns="http://www.w3.org/2000/svg">
<path d="M41.5358 17.1513L37.4738 15.7972L39.3866 11.9716C39.5805 11.5712 39.6454 11.1204 39.5722 10.6816C39.4991 10.2427 39.2915 9.83739 38.9782 9.52149L34.4004 4.94363C34.0828 4.62573 33.6736 4.41536 33.2302 4.34211C32.7869 4.26887 32.3317 4.33642 31.9288 4.53527L28.1031 6.44809L26.7491 2.38604C26.6061 1.96263 26.3347 1.59432 25.9726 1.33238C25.6105 1.07044 25.1757 0.927887 24.7288 0.924568H18.2812C17.8306 0.923405 17.391 1.06388 17.0247 1.32613C16.6583 1.58839 16.3836 1.95916 16.2394 2.38604L14.8854 6.44809L11.0597 4.53527C10.6593 4.34137 10.2086 4.27652 9.76972 4.34966C9.33086 4.4228 8.92552 4.63034 8.60962 4.94363L4.03176 9.52149C3.71386 9.83907 3.5035 10.2483 3.43025 10.6916C3.357 11.135 3.42455 11.5901 3.62341 11.9931L5.53622 15.8187L1.47418 17.1727C1.05076 17.3157 0.682458 17.5872 0.420515 17.9493C0.158572 18.3114 0.0160216 18.7461 0.0127025 19.193V25.6407C0.0115394 26.0913 0.152013 26.5308 0.414269 26.8972C0.676524 27.2636 1.0473 27.5383 1.47418 27.6825L5.53622 29.0365L3.62341 32.8621C3.42951 33.2626 3.36465 33.7133 3.43779 34.1522C3.51094 34.591 3.71847 34.9964 4.03176 35.3123L8.60962 39.8901C8.92721 40.208 9.33644 40.4184 9.77978 40.4916C10.2231 40.5649 10.6783 40.4973 11.0812 40.2985L14.9069 38.3857L16.2609 42.4477C16.4051 42.8746 16.6798 43.2453 17.0462 43.5076C17.4125 43.7699 17.8521 43.9103 18.3027 43.9092H24.7503C25.2009 43.9103 25.6405 43.7699 26.0068 43.5076C26.3732 43.2453 26.6479 42.8746 26.7921 42.4477L28.1461 38.3857L31.9718 40.2985C32.3696 40.4875 32.816 40.5497 33.2504 40.4766C33.6847 40.4036 34.0862 40.1988 34.4004 39.8901L38.9782 35.3123C39.2961 34.9947 39.5065 34.5854 39.5798 34.1421C39.653 33.6987 39.5855 33.2436 39.3866 32.8406L37.4738 29.015L41.5358 27.661C41.9592 27.518 42.3275 27.2466 42.5895 26.8845C42.8514 26.5224 42.994 26.0876 42.9973 25.6407V19.193C42.9985 18.7425 42.858 18.3029 42.5957 17.9365C42.3335 17.5701 41.9627 17.2954 41.5358 17.1513ZM38.6988 24.0933L36.1198 24.953C35.5267 25.1453 34.9826 25.4644 34.5252 25.8881C34.0677 26.3118 33.7079 26.8299 33.4708 27.4065C33.2336 27.9831 33.1247 28.6044 33.1516 29.2273C33.1785 29.8502 33.3406 30.4598 33.6267 31.0138L34.8517 33.4639L32.4876 35.8281L30.1019 34.5385C29.5508 34.2639 28.947 34.111 28.3316 34.09C27.7162 34.069 27.1035 34.1805 26.5349 34.4169C25.9663 34.6533 25.4551 35.0091 25.036 35.4602C24.6169 35.9113 24.2996 36.4472 24.1056 37.0316L23.2459 39.6107H19.8286L18.9689 37.0316C18.7765 36.4386 18.4575 35.8945 18.0338 35.437C17.6101 34.9796 17.092 34.6198 16.5154 34.3826C15.9388 34.1454 15.3175 34.0365 14.6946 34.0634C14.0717 34.0904 13.4621 34.2525 12.9081 34.5385L10.458 35.7636L8.09381 33.3994L9.38335 31.0138C9.6694 30.4598 9.8315 29.8502 9.85842 29.2273C9.88535 28.6044 9.77643 27.9831 9.53925 27.4065C9.30206 26.8299 8.94228 26.3118 8.48485 25.8881C8.02742 25.4644 7.4833 25.1453 6.89024 24.953L4.31116 24.0933V20.7405L6.89024 19.8808C7.4833 19.6884 8.02742 19.3693 8.48485 18.9456C8.94228 18.522 9.30206 18.0039 9.53925 17.4273C9.77643 16.8507 9.88535 16.2293 9.85842 15.6064C9.8315 14.9835 9.6694 14.3739 9.38335 13.8199L8.15829 11.4343L10.5224 9.07015L12.9081 10.2952C13.4621 10.5813 14.0717 10.7434 14.6946 10.7703C15.3175 10.7972 15.9388 10.6883 16.5154 10.4511C17.092 10.2139 17.6101 9.85414 18.0338 9.39672C18.4575 8.93929 18.7765 8.39517 18.9689 7.8021L19.8286 5.22303H23.1814L24.0411 7.8021C24.2335 8.39517 24.5526 8.93929 24.9762 9.39672C25.3999 9.85414 25.918 10.2139 26.4946 10.4511C27.0712 10.6883 27.6925 10.7972 28.3154 10.7703C28.9383 10.7434 29.5479 10.5813 30.1019 10.2952L32.552 9.07015L34.9162 11.4343L33.6267 13.8199C33.3521 14.3711 33.1991 14.9748 33.1781 15.5902C33.1571 16.2057 33.2686 16.8184 33.505 17.387C33.7414 17.9556 34.0972 18.4667 34.5483 18.8859C34.9995 19.305 35.5354 19.6223 36.1198 19.8163L38.6988 20.676V24.0933ZM21.505 13.8199C19.8047 13.8199 18.1426 14.3242 16.7288 15.2688C15.3151 16.2134 14.2132 17.5561 13.5625 19.127C12.9118 20.6979 12.7416 22.4264 13.0733 24.094C13.405 25.7617 14.2238 27.2935 15.4261 28.4958C16.6284 29.6981 18.1602 30.5169 19.8278 30.8486C21.4955 31.1803 23.224 31.0101 24.7949 30.3594C26.3658 29.7087 27.7084 28.6068 28.6531 27.1931C29.5977 25.7793 30.1019 24.1172 30.1019 22.4169C30.1019 20.1368 29.1962 17.9502 27.5839 16.3379C25.9717 14.7257 23.785 13.8199 21.505 13.8199ZM21.505 26.7153C20.6548 26.7153 19.8238 26.4632 19.1169 25.9909C18.41 25.5186 17.8591 24.8473 17.5337 24.0618C17.2084 23.2764 17.1233 22.4121 17.2891 21.5783C17.455 20.7445 17.8644 19.9785 18.4655 19.3774C19.0667 18.7762 19.8326 18.3669 20.6664 18.201C21.5002 18.0351 22.3645 18.1203 23.15 18.4456C23.9354 18.7709 24.6067 19.3219 25.079 20.0288C25.5514 20.7357 25.8035 21.5667 25.8035 22.4169C25.8035 23.5569 25.3506 24.6502 24.5445 25.4563C23.7384 26.2625 22.645 26.7153 21.505 26.7153Z" fill="white"/>
</svg>
