<svg width="37" height="46" viewBox="0 0 37 46" fill="none" xmlns="http://www.w3.org/2000/svg">
<path d="M18.2162 25.2365C17.523 25.2284 16.8439 25.4329 16.2704 25.8224C15.6968 26.2119 15.2564 26.7678 15.0084 27.4152C14.7603 28.0626 14.7166 28.7705 14.883 29.4435C15.0494 30.1165 15.418 30.7224 15.9392 31.1796V34.3447C15.9392 34.9486 16.1791 35.5277 16.6061 35.9548C17.0331 36.3818 17.6123 36.6217 18.2162 36.6217C18.8201 36.6217 19.3993 36.3818 19.8263 35.9548C20.2533 35.5277 20.4932 34.9486 20.4932 34.3447V31.1796C21.0144 30.7224 21.383 30.1165 21.5494 29.4435C21.7159 28.7705 21.6721 28.0626 21.4241 27.4152C21.176 26.7678 20.7356 26.2119 20.1621 25.8224C19.5885 25.4329 18.9095 25.2284 18.2162 25.2365ZM29.6014 16.1284H11.3851V11.5744C11.3818 10.2223 11.7798 8.89956 12.5288 7.7738C13.2778 6.64805 14.3439 5.76989 15.5924 5.25053C16.8408 4.73117 18.2152 4.59399 19.5417 4.85634C20.8681 5.1187 22.0868 5.7688 23.0435 6.72431C23.8996 7.59885 24.5119 8.68216 24.8196 9.86661C24.8944 10.1567 25.0255 10.4292 25.2056 10.6685C25.3856 10.9079 25.6111 11.1094 25.869 11.2617C26.127 11.4139 26.4124 11.5139 26.709 11.5558C27.0056 11.5977 27.3075 11.5808 27.5976 11.5061C27.8876 11.4313 28.1601 11.3002 28.3995 11.1201C28.6388 10.94 28.8404 10.7146 28.9926 10.4566C29.1449 10.1987 29.2448 9.91325 29.2867 9.61667C29.3287 9.32009 29.3118 9.01815 29.237 8.7281C28.7183 6.75801 27.6894 4.95947 26.2541 3.5137C24.6606 1.92517 22.6321 0.844427 20.4248 0.407937C18.2175 -0.0285531 15.9304 0.198785 13.8522 1.06125C11.774 1.92371 9.99798 3.38261 8.74835 5.25375C7.49873 7.12488 6.83156 9.32434 6.83108 11.5744V16.1284C5.01937 16.1284 3.28185 16.8481 2.00078 18.1292C0.719701 19.4103 0 21.1478 0 22.9595V38.8987C0 40.7104 0.719701 42.4479 2.00078 43.729C3.28185 45.0101 5.01937 45.7298 6.83108 45.7298H29.6014C31.4131 45.7298 33.1506 45.0101 34.4317 43.729C35.7127 42.4479 36.4324 40.7104 36.4324 38.8987V22.9595C36.4324 21.1478 35.7127 19.4103 34.4317 18.1292C33.1506 16.8481 31.4131 16.1284 29.6014 16.1284ZM31.8784 38.8987C31.8784 39.5026 31.6385 40.0818 31.2115 40.5088C30.7844 40.9358 30.2053 41.1757 29.6014 41.1757H6.83108C6.22718 41.1757 5.64801 40.9358 5.22098 40.5088C4.79396 40.0818 4.55405 39.5026 4.55405 38.8987V22.9595C4.55405 22.3556 4.79396 21.7764 5.22098 21.3494C5.64801 20.9224 6.22718 20.6825 6.83108 20.6825H29.6014C30.2053 20.6825 30.7844 20.9224 31.2115 21.3494C31.6385 21.7764 31.8784 22.3556 31.8784 22.9595V38.8987Z" fill="white"/>
</svg>
